HIERARCHY
ROOT Hips
{
	OFFSET 53.152500 -6.664224 84.279198
	CHANNELS 6 Xposition Yposition Zposition Xrotation Yrotation Zrotation
	JOINT spine
	{
		OFFSET 0.000000 -0.342408 5.954384
		CHANNELS 3 Xrotation Yrotation Zrotation
		JOINT spine1
		{
			OFFSET 0.000000 -0.000001 8.856018
			CHANNELS 3 Xrotation Yrotation Zrotation
			JOINT spine2
			{
				OFFSET 0.000000 -0.000001 8.485672
				CHANNELS 3 Xrotation Yrotation Zrotation
				JOINT Neck
				{
					OFFSET 0.000000 -1.038703 21.786301
					CHANNELS 3 Xrotation Yrotation Zrotation
					JOINT Head
					{
						OFFSET 0.000000 -0.000001 6.582199
						CHANNELS 3 Xrotation Yrotation Zrotation
						End Site
						{
							OFFSET 0.000000 5.254357 15.932602
						}
					}
				}
				JOINT RightShoulder
				{
					OFFSET -3.573071 0.497524 9.163864
					CHANNELS 3 Xrotation Yrotation Zrotation
					JOINT RightArm
					{
						OFFSET 0.000000 -0.000002 12.019196
						CHANNELS 3 Xrotation Yrotation Zrotation
						JOINT RightArmRoll
						{
							OFFSET 0.000000 -0.000001 6.067551
							CHANNELS 3 Xrotation Yrotation Zrotation
							JOINT RightForeArm
							{
								OFFSET 0.000000 -0.000003 17.672592
								CHANNELS 3 Xrotation Yrotation Zrotation
								JOINT RightForeArmRoll
								{
									OFFSET 0.000000 -0.000001 6.808716
									CHANNELS 3 Xrotation Yrotation Zrotation
									JOINT RightHand
									{
										OFFSET 0.000000 -0.000002 13.663605
										CHANNELS 3 Xrotation Yrotation Zrotation
										End Site
										{
											OFFSET 0.000000 0.000000 0.100006
										}
									}
								}
							}
						}
					}
				}
				JOINT LeftShoulder
				{
					OFFSET 3.573071 0.497524 9.163864
					CHANNELS 3 Xrotation Yrotation Zrotation
					JOINT LeftArm
					{
						OFFSET 0.000000 -0.000002 12.019196
						CHANNELS 3 Xrotation Yrotation Zrotation
						JOINT LeftArmRoll
						{
							OFFSET 0.000000 -0.000001 6.067551
							CHANNELS 3 Xrotation Yrotation Zrotation
							JOINT LeftForeArm
							{
								OFFSET 0.000000 -0.000003 17.672592
								CHANNELS 3 Xrotation Yrotation Zrotation
								JOINT LeftForeArmRoll
								{
									OFFSET 0.000000 -0.000001 6.808716
									CHANNELS 3 Xrotation Yrotation Zrotation
									JOINT LeftHand
									{
										OFFSET 0.000000 -0.000002 13.663605
										CHANNELS 3 Xrotation Yrotation Zrotation
										End Site
										{
											OFFSET 0.000000 0.000000 0.100006
										}
									}
								}
							}
						}
					}
				}
			}
		}
	}
	JOINT RightUpLeg
	{
		OFFSET -5.277740 0.811859 -0.967796
		CHANNELS 3 Xrotation Yrotation Zrotation
		JOINT RightUpLegRoll
		{
			OFFSET 0.000000 -0.000003 16.021400
			CHANNELS 3 Xrotation Yrotation Zrotation
			JOINT RightLeg
			{
				OFFSET 0.000000 0.000003 -19.840096
				CHANNELS 3 Xrotation Yrotation Zrotation
				JOINT RightLegRoll
				{
					OFFSET 0.000000 -0.000003 19.904999
					CHANNELS 3 Xrotation Yrotation Zrotation
					JOINT RightFoot
					{
						OFFSET 0.000000 -0.000003 16.567497
						CHANNELS 3 Xrotation Yrotation Zrotation
						JOINT RightToeBase
						{
							OFFSET 0.000000 -0.000002 13.849602
							CHANNELS 3 Xrotation Yrotation Zrotation
							End Site
							{
								OFFSET 0.005871 0.773115 6.707275
							}
						}
					}
				}
			}
		}
	}
	JOINT LeftUpLeg
	{
		OFFSET 5.277740 0.811859 -0.967796
		CHANNELS 3 Xrotation Yrotation Zrotation
		JOINT LeftUpLegRoll
		{
			OFFSET 0.000000 -0.000003 16.021500
			CHANNELS 3 Xrotation Yrotation Zrotation
			JOINT LeftLeg
			{
				OFFSET 0.000000 -0.000003 19.839996
				CHANNELS 3 Xrotation Yrotation Zrotation
				JOINT LeftLegRoll
				{
					OFFSET 0.000000 -0.000003 20.089005
					CHANNELS 3 Xrotation Yrotation Zrotation
					JOINT LeftFoot
					{
						OFFSET 0.000000 -0.000002 16.383499
						CHANNELS 3 Xrotation Yrotation Zrotation
						JOINT LeftToeBase
						{
							OFFSET 0.000000 -0.000002 13.849594
							CHANNELS 3 Xrotation Yrotation Zrotation
							End Site
							{
								OFFSET -0.026310 0.773116 6.707275
							}
						}
					}
				}
			}
		}
	}
}
MOTION
Frames: 13
Frame Time: 0.041667
52.250202 -4.677734 84.390709 -8.032821 -0.260291 -2.069233 -0.721069 -0.105868 0.038091 2.583117 -0.211481 0.074307 4.228209 -0.210485 0.073926 12.493089 3.075872 -0.369327 6.005035 -5.568698 0.012696 -3.645054 -74.100654 -5.657771 -43.079393 -112.313759 -47.660111 0.000001 -0.000000 -0.000002 -0.031480 3.637950 -1.990802 -0.000001 -0.000001 -3.011610 -5.000173 -7.999909 0.000000 -10.804919 70.833085 13.302307 -39.837147 117.126502 47.509983 0.000004 0.000003 0.000001 -0.025857 -3.640801 1.990838 -0.000001 0.000002 3.011601 -5.000172 7.999899 -0.000011 0.674882 -178.470111 4.205728 -179.999991 0.000005 -1.118999 168.148411 -3.386421 -0.710189 0.000003 0.000005 0.171412 71.089073 6.836705 2.144327 25.456957 -7.355624 0.000005 2.936785 179.567558 0.035867 -0.000005 -0.000004 -1.154680 -9.663798 2.012653 0.422477 0.000005 0.000000 -0.165632 70.608795 -6.830794 -2.178015 25.456950 7.355613 -0.000001 
52.252304 -4.677980 84.392891 -8.033874 -0.259817 -2.071701 -0.721128 -0.105936 0.038091 2.581418 -0.211489 0.074307 4.226498 -0.210492 0.073927 12.510033 3.085582 -0.369055 5.993013 -5.576032 0.012633 -3.645651 -74.097034 -5.658112 -43.091360 -112.295980 -47.656665 0.000002 -0.000000 -0.000002 -0.031476 3.637950 -1.990802 -0.000003 -0.000001 -3.011610 -5.000173 -7.999910 0.000001 -10.812930 70.835544 13.311319 -39.827356 117.118428 47.496452 0.000005 0.000003 0.000000 -0.025855 -3.640800 1.990839 -0.000001 0.000002 3.011600 -5.000171 7.999899 -0.000010 0.675180 -178.467092 4.209772 -179.999991 0.000005 -1.118999 168.144545 -3.390277 -0.710234 0.000003 0.000005 0.171412 71.089415 6.836737 2.144209 25.456957 -7.355623 0.000004 2.933844 179.567572 0.035778 -0.000005 -0.000004 -1.154680 -9.667823 2.012886 0.422498 0.000005 0.000000 -0.165530 70.608891 -6.830761 -2.178004 25.456952 7.355613 -0.000001 
52.251904 -4.674392 84.391998 -8.034734 -0.259363 -2.074081 -0.721211 -0.106038 0.038091 2.579607 -0.211554 0.074306 4.224699 -0.210557 0.073927 12.527282 3.096027 -0.368824 5.980827 -5.584142 0.012542 -3.645199 -74.093038 -5.657278 -43.102551 -112.277942 -47.653588 0.000003 -0.000000 -0.000002 -0.031478 3.637950 -1.990802 -0.000001 -0.000001 -3.011610 -5.000174 -7.999909 0.000000 -10.821519 70.838788 13.321014 -39.817558 117.110355 47.482297 0.000003 0.000003 0.000000 -0.025858 -3.640801 1.990836 -0.000000 0.000003 3.011601 -5.000170 7.999898 -0.000012 0.675226 -178.464114 4.213769 -179.999991 0.000005 -1.118999 168.140584 -3.395123 -0.710496 0.000003 0.000005 0.171412 71.089831 6.836736 2.144186 25.456955 -7.355625 0.000004 2.930344 179.568556 0.035795 -0.000005 -0.000004 -1.154680 -9.672067 2.013107 0.422526 0.000005 0.000000 -0.165411 70.608781 -6.830761 -2.178110 25.456952 7.355613 -0.000001 
52.257706 -4.676182 84.393295 -8.035461 -0.258924 -2.076403 -0.721320 -0.106164 0.038091 2.577738 -0.211660 0.074307 4.222829 -0.210662 0.073927 12.544743 3.107006 -0.368628 5.968537 -5.592792 0.012430 -3.644019 -74.088756 -5.655637 -43.111905 -112.260559 -47.649346 0.000001 -0.000000 -0.000002 -0.031475 3.637950 -1.990802 -0.000003 -0.000001 -3.011609 -5.000172 -7.999909 0.000001 -10.830454 70.842415 13.331105 -39.808118 117.102391 47.468148 0.000005 0.000003 -0.000000 -0.025860 -3.640800 1.990837 -0.000002 0.000002 3.011599 -5.000171 7.999899 -0.000011 0.675090 -178.461095 4.217740 -179.999991 0.000005 -1.118999 168.136513 -3.398989 -0.710563 0.000003 0.000005 0.171412 71.090255 6.836732 2.144158 25.456953 -7.355623 0.000005 2.926439 179.569566 0.035850 -0.000005 -0.000004 -1.154680 -9.676482 2.013337 0.422563 0.000005 0.000000 -0.165282 70.608583 -6.830792 -2.178028 25.456953 7.355613 -0.000000 
52.253902 -4.677542 84.392799 -8.036113 -0.258494 -2.078685 -0.721432 -0.106302 0.038091 2.575827 -0.211789 0.074307 4.220918 -0.210790 0.073927 12.562304 3.118285 -0.368454 5.956182 -5.601749 0.012303 -3.642430 -74.084371 -5.653535 -43.119186 -112.243784 -47.643370 0.000000 -0.000000 -0.000002 -0.031479 3.637950 -1.990803 -0.000002 -0.000001 -3.011610 -5.000172 -7.999909 0.000001 -10.839612 70.846335 13.341461 -39.799919 117.093662 47.455314 0.000004 0.000003 0.000000 -0.025857 -3.640800 1.990838 -0.000001 0.000002 3.011601 -5.000172 7.999901 -0.000010 0.674857 -178.458090 4.221700 -179.999991 0.000005 -1.118999 168.132469 -3.402857 -0.710626 0.000003 0.000005 0.171412 71.090788 6.836731 2.144125 25.456953 -7.355623 0.000004 2.922323 179.569566 0.035876 -0.000005 -0.000004 -1.154680 -9.680984 2.013556 0.422602 0.000005 0.000000 -0.165145 70.608460 -6.830757 -2.178030 25.456952 7.355613 -0.000000 
52.255100 -4.679031 84.391098 -8.036755 -0.258064 -2.080957 -0.721550 -0.106444 0.038091 2.573908 -0.211923 0.074306 4.218999 -0.210923 0.073927 12.579872 3.129630 -0.368287 5.943821 -5.610787 0.012171 -3.640726 -74.079897 -5.651297 -43.126511 -112.227002 -47.637527 0.000001 -0.000000 -0.000002 -0.031477 3.637950 -1.990802 -0.000001 -0.000001 -3.011610 -5.000172 -7.999909 0.000001 -10.848809 70.850256 13.351857 -39.790459 117.085698 47.440961 0.000002 0.000003 0.000001 -0.025859 -3.640801 1.990837 -0.000002 0.000002 3.011600 -5.000171 7.999900 -0.000011 0.674594 -178.456095 4.225636 -179.999991 0.000005 -1.118998 168.128412 -3.407699 -0.709887 0.000003 0.000005 0.171412 71.091320 6.836729 2.144091 25.456957 -7.355624 0.000005 2.918141 179.570564 0.035958 -0.000005 -0.000004 -1.154680 -9.685509 2.013775 0.422642 0.000005 0.000000 -0.165007 70.608255 -6.830754 -2.178042 25.456950 7.355613 -0.000001 
52.254704 -4.679219 84.390205 -8.037422 -0.257631 -2.083249 -0.721664 -0.106580 0.038091 2.572008 -0.212046 0.074307 4.217099 -0.211045 0.073927 12.597433 3.140835 -0.368126 5.931479 -5.619665 0.012039 -3.639237 -74.075512 -5.649307 -43.133826 -112.210227 -47.631461 0.000002 -0.000000 -0.000002 -0.031476 3.637950 -1.990802 -0.000000 -0.000001 -3.011609 -5.000172 -7.999909 0.000001 -10.857887 70.854074 13.362118 -39.782061 117.076928 47.427935 0.000004 0.000003 -0.000001 -0.025858 -3.640800 1.990837 -0.000003 0.000002 3.011600 -5.000173 7.999899 -0.000010 0.674385 -178.453104 4.229596 -179.999991 0.000005 -1.118998 168.124355 -3.411567 -0.709952 0.000003 0.000005 0.171412 71.091853 6.836728 2.143958 25.456959 -7.355624 0.000004 2.914072 179.571561 0.036030 -0.000005 -0.000004 -1.154680 -9.689983 2.014005 0.422682 0.000005 0.000000 -0.164872 70.608050 -6.830788 -2.177958 25.456952 7.355613 -0.000001 
52.251999 -4.683434 84.387009 -8.038176 -0.257188 -2.085580 -0.721763 -0.106698 0.038091 2.570158 -0.212140 0.074306 4.215238 -0.211140 0.073926 12.614895 3.151661 -0.367950 5.919215 -5.628166 0.011918 -3.638268 -74.071318 -5.647893 -43.143255 -112.192844 -47.627070 0.000003 -0.000000 -0.000002 -0.031478 3.637950 -1.990802 -0.000000 -0.000001 -3.011610 -5.000173 -7.999909 0.000001 -10.866752 70.857612 13.372119 -39.772414 117.068910 47.413712 0.000004 0.000003 0.000002 -0.025859 -3.640800 1.990837 -0.000003 0.000002 3.011602 -5.000170 7.999899 -0.000010 0.674301 -178.450112 4.233578 -179.999991 0.000005 -1.118999 168.120380 -3.416411 -0.710219 0.000003 0.000005 0.171412 71.092284 6.836726 2.144032 25.456955 -7.355624 0.000004 2.910279 179.571561 0.036022 -0.000004 -0.000004 -1.154680 -9.694348 2.014225 0.422716 0.000005 0.000000 -0.164746 70.607948 -6.830785 -2.177965 25.456952 7.355613 -0.000000 
52.256199 -4.680822 84.378998 -8.039101 -0.256728 -2.087989 -0.721837 -0.106789 0.038090 2.568385 -0.212188 0.074306 4.213469 -0.211187 0.073926 12.632050 3.161893 -0.367748 5.907087 -5.636039 0.011812 -3.638132 -74.067418 -5.647413 -43.154764 -112.174867 -47.623965 0.000004 -0.000000 -0.000001 -0.031476 3.637950 -1.990802 0.000001 -0.000001 -3.011610 -5.000176 -7.999909 0.000001 -10.875171 70.860556 13.381612 -39.762769 117.060891 47.399891 0.000004 0.000003 0.000002 -0.025859 -3.640801 1.990837 -0.000002 0.000002 3.011600 -5.000173 7.999899 -0.000009 0.674425 -178.447107 4.237587 -179.999991 0.000005 -1.118998 168.116418 -3.420278 -0.710280 0.000003 0.000005 0.171412 71.092707 6.836723 2.143906 25.456957 -7.355622 0.000004 2.906952 179.572544 0.036022 -0.000005 -0.000004 -1.154680 -9.698531 2.014456 0.422743 0.000005 0.000000 -0.164632 70.607832 -6.830784 -2.178073 25.456950 7.355613 -0.000000 
52.252804 -4.680524 84.380104 -8.040235 -0.256244 -2.090486 -0.721886 -0.106845 0.038091 2.566718 -0.212173 0.074306 4.211799 -0.211170 0.073926 12.648891 3.171296 -0.367507 5.895120 -5.643063 0.011733 -3.639150 -74.063990 -5.648234 -43.168766 -112.156433 -47.622227 0.000005 -0.000000 -0.000002 -0.031477 3.637950 -1.990802 -0.000003 -0.000001 -3.011610 -5.000170 -7.999909 0.000001 -10.882978 70.862735 13.390378 -39.751506 117.053528 47.384827 0.000004 0.000003 0.000000 -0.025859 -3.640800 1.990837 -0.000000 0.000002 3.011600 -5.000171 7.999899 -0.000011 0.674826 -178.444115 4.241644 -179.999991 0.000005 -1.118998 168.112580 -3.424147 -0.710336 0.000002 0.000005 0.171412 71.093021 6.836724 2.143886 25.456960 -7.355625 0.000006 2.904240 179.572558 0.035910 -0.000005 -0.000004 -1.154680 -9.702465 2.014679 0.422759 0.000006 0.000000 -0.164536 70.607941 -6.830784 -2.177965 25.456955 7.355612 -0.000001 
52.254105 -4.679490 84.384697 -8.041630 -0.255730 -2.093120 -0.721891 -0.106853 0.038091 2.565187 -0.212076 0.074307 4.210268 -0.211074 0.073926 12.665324 3.179650 -0.367215 5.883373 -5.649011 0.011687 -3.641620 -74.061039 -5.650665 -43.188864 -112.136133 -47.625379 0.000002 -0.000000 -0.000002 -0.031476 3.637950 -1.990802 -0.000001 -0.000001 -3.011610 -5.000172 -7.999910 0.000001 -10.890084 70.864032 13.398337 -39.738645 117.046807 47.368748 0.000003 0.000003 0.000000 -0.025860 -3.640801 1.990838 -0.000003 0.000002 3.011601 -5.000173 7.999900 -0.000009 0.675587 -178.441110 4.245749 -179.999991 0.000005 -1.118999 168.108810 -3.428993 -0.709581 0.000003 0.000005 0.171412 71.093240 6.836721 2.143873 25.456957 -7.355623 0.000004 2.902320 179.573542 0.035772 -0.000004 -0.000004 -1.154680 -9.706079 2.014914 0.422762 0.000006 0.000000 -0.164463 70.608153 -6.830787 -2.177953 25.456953 7.355613 -0.000002 
52.250305 -4.684601 84.381004 -8.043352 -0.255182 -2.095890 -0.721855 -0.106805 0.038091 2.563817 -0.211883 0.074306 4.208898 -0.210880 0.073926 12.681138 3.186743 -0.366854 5.871881 -5.653635 0.011684 -3.645891 -74.058867 -5.655129 -43.211684 -112.115431 -47.629419 0.000002 -0.000000 -0.000002 -0.031476 3.637950 -1.990802 -0.000000 -0.000001 -3.011609 -5.000172 -7.999910 0.000000 -10.896270 70.864169 13.405215 -39.725418 117.039963 47.353056 0.000004 0.000003 0.000000 -0.025858 -3.640801 1.990837 -0.000003 0.000002 3.011599 -5.000171 7.999900 -0.000011 0.676778 -178.438105 4.249928 -179.999991 0.000005 -1.118999 168.105244 -3.432852 -0.709617 0.000003 0.000005 0.171412 71.093240 6.836721 2.143973 25.456957 -7.355625 0.000005 2.901356 179.573542 0.035491 -0.000005 -0.000004 -1.154680 -9.709302 2.015141 0.422747 0.000006 0.000000 -0.164418 70.608481 -6.830792 -2.178033 25.456953 7.355613 -0.000000 
52.247402 -4.686342 84.382202 -8.045461 -0.254590 -2.098846 -0.721756 -0.106689 0.038091 2.562638 -0.211573 0.074306 4.207718 -0.210570 0.073926 12.696431 3.192337 -0.366418 5.860706 -5.656711 0.011731 -3.652217 -74.057460 -5.661886 -43.240811 -112.092946 -47.637892 0.000004 -0.000000 -0.000002 -0.031475 3.637950 -1.990802 0.000001 -0.000001 -3.011610 -5.000173 -7.999910 0.000000 -10.901392 70.862953 13.410837 -39.709326 117.034554 47.335219 0.000005 0.000003 0.000001 -0.025859 -3.640801 1.990838 -0.000002 0.000002 3.011599 -5.000174 7.999901 -0.000010 0.678486 -178.435113 4.254180 -179.999991 0.000005 -1.118999 168.101788 -3.437701 -0.709856 0.000003 0.000005 0.171412 71.093130 6.836722 2.143980 25.456957 -7.355624 0.000005 2.901540 179.573542 0.035101 -0.000005 -0.000004 -1.154680 -9.712065 2.015380 0.422715 0.000006 0.000000 -0.164404 70.609123 -6.830798 -2.177996 25.456953 7.355613 -0.000000 
